<svg xmlns="http://www.w3.org/2000/svg" xmlns:xlink="http://www.w3.org/1999/xlink" fill="none" version="1.1" width="25.5" height="25.5" viewBox="0 0 25.5 25.5"><defs><mask id="master_svg0_1159_3938"><g><rect x="0.75" y="0.75" width="24" height="24" rx="2" fill="#FFFFFF" fill-opacity="1"/></g></mask></defs><g mask="url(#master_svg0_1159_3938)"><g><path d="M18.65535,10.764L18.65573,10.76359Q18.8459,10.556104,18.948,10.293785Q19.05,10.031467,19.05,9.75000199356Q19.05,9.7174067,19.0486,9.6848442Q19.0422,9.537247,19.0071,9.393737Q18.972,9.250227,18.909599999999998,9.11632Q18.8472,8.982414,18.7598,8.863256Q18.67249,8.7441,18.563589999999998,8.64427Q18.356099999999998,8.45408,18.09379,8.35204Q17.83147,8.25,17.55,8.25L17.54786,8.25Q17.51634,8.25005,17.48485,8.25142Q17.337249999999997,8.25783,17.19374,8.29292Q17.05023,8.328009999999999,16.91632,8.39042Q16.78241,8.45283,16.66326,8.54017Q16.5441,8.627510000000001,16.44427,8.73641L16.44389,8.73683L11.68333,13.93016L9.85596,11.93666L9.85573,11.93641Q9.7559,11.82751,9.636744,11.740169999999999Q9.517586,11.65283,9.38368,11.59042Q9.249773,11.52801,9.106263,11.49292Q8.962754,11.45783,8.8151559,11.45142Q8.7825935,11.45,8.75000029864,11.45L8.74309418,11.45002Q8.463418,11.4513,8.202999,11.55329Q7.9425799999999995,11.65528,7.73641,11.84427Q7.62144,11.94966,7.53061,12.07645Q7.43978,12.203240000000001,7.37698,12.346Q7.31418,12.48877,7.28209,12.6414Q7.25,12.79403,7.25,12.95L7.25005,12.96247Q7.25237,13.2407,7.35431,13.49959Q7.45626,13.758479999999999,7.64427,13.96359L7.6448599999999995,13.96423L10.5776,17.16359Q10.62167,17.211660000000002,10.66975,17.25573Q10.778649999999999,17.35556,10.90494,17.43223Q11.03123,17.50889,11.17005,17.55945Q11.30886,17.61,11.45488,17.6325Q11.60089,17.655,11.74849,17.64858Q11.896090000000001,17.64217,12.0396,17.60708Q12.18311,17.57199,12.31701,17.50958Q12.45092,17.44717,12.57008,17.35983Q12.68923,17.27249,12.78906,17.16359L18.65535,10.764Z" fill-rule="evenodd" fill="#07D498" fill-opacity="1"/></g></g></svg>