<svg xmlns="http://www.w3.org/2000/svg" xmlns:xlink="http://www.w3.org/1999/xlink" fill="none" version="1.1" width="24" height="24" viewBox="0 0 24 24"><defs><mask id="master_svg0_843_5956"><g><rect x="0" y="0" width="24" height="24" rx="0" fill="#FFFFFF" fill-opacity="1"/></g></mask></defs><g mask="url(#master_svg0_843_5956)"><g><g><path d="M3,22L21,22Q21.0985,22,21.1951,21.980785Q21.2917,21.961570000000002,21.3827,21.923879Q21.4737,21.886188,21.5556,21.83147Q21.6375,21.776751,21.7071,21.707107Q21.7767,21.637463,21.8315,21.55557Q21.8862,21.473678,21.9239,21.382683Q21.9616,21.291689,21.9808,21.19509Q22,21.0984914,22,21Q22,20.9015086,21.9808,20.80491Q21.9616,20.708311,21.9239,20.617317Q21.8862,20.526322,21.8315,20.44443Q21.7767,20.362537,21.7071,20.292893Q21.6375,20.223249,21.5556,20.16853Q21.4737,20.113812,21.3827,20.076121Q21.2917,20.038429999999998,21.1951,20.019215Q21.0985,20,21,20L3,20Q2.9015086,20,2.80491,20.019215Q2.708311,20.038429999999998,2.617317,20.076121Q2.526322,20.113812,2.44443,20.16853Q2.362537,20.223249,2.292893,20.292893Q2.223249,20.362537,2.16853,20.44443Q2.1138120000000002,20.526322,2.076121,20.617317Q2.03843,20.708311,2.019215,20.80491Q2,20.9015086,2,21Q2,21.0984914,2.019215,21.19509Q2.03843,21.291689,2.076121,21.382683Q2.1138120000000002,21.473678,2.16853,21.55557Q2.223249,21.637463,2.292893,21.707107Q2.362537,21.776751,2.44443,21.83147Q2.526322,21.886188,2.617317,21.923879Q2.708311,21.961570000000002,2.80491,21.980785Q2.9015086,22,3,22Z" fill-rule="evenodd" fill="#999999" fill-opacity="1"/></g><g><path d="M14.6406,2.292738L14.64002,2.293317L4.29247,12.65327Q4.152012,12.79389,4.076006,12.97754Q4,13.1612,4,13.36L4,17Q4,17.0985,4.019215,17.1951Q4.03843,17.2917,4.076121,17.3827Q4.113812,17.4737,4.16853,17.5556Q4.223249,17.6375,4.292893,17.7071Q4.362537,17.776699999999998,4.44443,17.8315Q4.526322,17.886200000000002,4.617317,17.9239Q4.708311,17.9616,4.80491,17.980800000000002Q4.9015086,18,5,18L8.6586,18Q8.857569999999999,18,9.04138,17.9238Q9.225200000000001,17.8477,9.36586,17.707L19.7073,7.361Q19.776899999999998,7.29136,19.8316,7.20948Q19.8863,7.1276,19.9239,7.03663Q19.9616,6.94566,19.980800000000002,6.84909Q20,6.75251,20,6.65405Q20,6.5555900000000005,19.980800000000002,6.45901Q19.9616,6.362439999999999,19.9239,6.27147Q19.8863,6.18049,19.8316,6.09862Q19.776899999999998,6.01674,19.7073,5.9471L16.0548,2.2930479999999998Q15.9852,2.223389,15.9033,2.168652Q15.8214,2.113915,15.7304,2.076204Q15.6394,2.038494,15.5429,2.0192579999999998Q15.4463,2.000022,15.3478,2Q15.2493,1.99998,15.1527,2.019172Q15.0561,2.038366,14.96507,2.076037Q14.87407,2.113708,14.79216,2.168409Q14.71026,2.22311,14.6406,2.292738ZM15.3478,4.41479L6,13.7738L6,16L8.24426,16L17.586100000000002,6.65405L15.3478,4.41479Z" fill-rule="evenodd" fill="#999999" fill-opacity="1"/></g></g></g></svg>