<svg xmlns="http://www.w3.org/2000/svg" xmlns:xlink="http://www.w3.org/1999/xlink" fill="none" version="1.1" width="20" height="20" viewBox="0 0 20 20"><g><g><path d="M0,14C0,17.3137,2.68629,20,6,20L14,20C17.3137,20,20,17.3137,20,14L20,6C20,2.68629,17.3137,0,14,0L6,0C2.68629,0,0,2.68629,0,6L0,14Z" fill="#F6E5E4" fill-opacity="1"/><path d="M0,14C0,17.3137,2.68629,20,6,20L14,20C17.3137,20,20,17.3137,20,14L20,6C20,2.68629,17.3137,0,14,0L6,0C2.68629,0,0,2.68629,0,6L0,14ZM1,14Q1,16.0711,2.46447,17.5355Q3.92893,19,6,19L14,19Q16.0711,19,17.5355,17.5355Q19,16.0711,19,14L19,6Q19,3.92893,17.5355,2.46447Q16.0711,1,14,1L6,1Q3.92893,1,2.46447,2.46447Q1,3.92893,1,6L1,14Z" fill-rule="evenodd" fill="#D42C1F" fill-opacity="1"/></g><g><g><path d="M9.25,13.3056640625L9.25,13.8056640625Q9.25,13.8795330625,9.264410999999999,13.9519820625Q9.278822,14.0244310625,9.30709,14.0926770625Q9.335359,14.1609220625,9.376398,14.2223420625Q9.417437,14.2837610625,9.46967,14.3359940625Q9.521903,14.3882240625,9.583322,14.4292640625Q9.644742,14.4703040625,9.712987,14.4985740625Q9.781233,14.5268440625,9.853682,14.5412540625Q9.9261315,14.5556640625,10,14.5556640625Q10.0738685,14.5556640625,10.146318,14.5412540625Q10.218767,14.5268440625,10.287013,14.4985740625Q10.355258,14.4703040625,10.416678,14.4292640625Q10.478097,14.3882240625,10.53033,14.3359940625Q10.582563,14.2837610625,10.623602,14.2223420625Q10.664641,14.1609220625,10.69291,14.0926770625Q10.721178,14.0244310625,10.735589000000001,13.9519820625Q10.75,13.8795330625,10.75,13.8056640625L10.75,13.3056640625Q10.75,13.2317955625,10.735589000000001,13.1593460625Q10.721178,13.0868970625,10.69291,13.0186510625Q10.664641,12.9504060625,10.623602,12.8889860625Q10.582563,12.8275670625,10.53033,12.7753340625Q10.478097,12.7231010625,10.416678,12.6820620625Q10.355258,12.6410230625,10.287013,12.6127540625Q10.218767,12.5844860625,10.146318,12.570075062499999Q10.0738685,12.5556640625,10,12.5556640625Q9.9261315,12.5556640625,9.853682,12.570075062499999Q9.781233,12.5844860625,9.712987,12.6127540625Q9.644742,12.6410230625,9.583322,12.6820620625Q9.521903,12.7231010625,9.46967,12.7753340625Q9.417437,12.8275670625,9.376398,12.8889860625Q9.335359,12.9504060625,9.30709,13.0186510625Q9.278822,13.0868970625,9.264410999999999,13.1593460625Q9.25,13.2317955625,9.25,13.3056640625Z" fill-rule="evenodd" fill="#D42C1F" fill-opacity="1"/></g><g><path d="M9.25415,10.999749999999999L9.254151,11.00037Q9.254274,11.149560000000001,9.311479,11.28734Q9.368684,11.42512,9.474261,11.53052Q9.579723,11.63581,9.717426,11.692779999999999Q9.855128,11.749749999999999,10.00415039,11.749749999999999L10.00477298,11.749749999999999Q10.0786022,11.749690000000001,10.151002,11.73523Q10.223402,11.720780000000001,10.291594,11.69248Q10.359786,11.66419,10.421151,11.62314Q10.482517,11.58209,10.5347,11.52986Q10.586884,11.477630000000001,10.627882,11.416229999999999Q10.66888,11.35484,10.697119,11.28662Q10.725358,11.218399999999999,10.739754,11.145990000000001Q10.75415,11.07358,10.75415,10.999749999999999L10.75415,10.999130000000001L10.75,5.999999999768891L10.75,5.999377411Q10.749938,5.9255482,10.735482,5.853148Q10.721026,5.780748,10.692731,5.712556Q10.664435,5.644364,10.623386,5.582999Q10.582337,5.521633,10.53011,5.46945Q10.477883,5.417266,10.416484,5.376268Q10.355084,5.3352699999999995,10.286869,5.307031Q10.218654,5.278792,10.146242,5.264396Q10.0738294,5.25,10.000000110728,5.25L9.999377411,5.25Q9.9255482,5.250062,9.853148,5.264518Q9.780747999999999,5.278974,9.712556,5.307269Q9.644364,5.335565,9.582999,5.376614Q9.521633,5.417663,9.46945,5.46989Q9.417266,5.522117,9.376268,5.583516Q9.33527,5.644916,9.307031,5.713131Q9.278792,5.781346,9.264396,5.853759Q9.25,5.9261707,9.25,6L9.25,6.000622589L9.25415,10.999749999999999Z" fill-rule="evenodd" fill="#D42C1F" fill-opacity="1"/></g></g></g></svg>