<svg xmlns="http://www.w3.org/2000/svg" xmlns:xlink="http://www.w3.org/1999/xlink" fill="none" version="1.1" width="16" height="16" viewBox="0 0 16 16"><defs><mask id="master_svg0_48_920"><g><rect x="0" y="0" width="16" height="16" rx="0" fill="#FFFFFF" fill-opacity="1"/></g></mask></defs><g mask="url(#master_svg0_48_920)"><g><path d="M6.660659904632569,8L10.130329904632568,4.53033Q10.235819904632567,4.424841,10.29290990463257,4.287013Q10.349999904632568,4.149184,10.349999904632568,4Q10.349999904632568,3.850816,10.29290990463257,3.712987Q10.235819904632567,3.575159,10.130329904632568,3.46967Q10.024839904632568,3.364181,9.887009904632569,3.30709Q9.74917990463257,3.25,9.599999904632568,3.25Q9.450819904632569,3.25,9.312989904632568,3.30709Q9.175159904632569,3.364181,9.069669904632569,3.46967L5.069669904632568,7.46967Q5.017436904632568,7.5219000000000005,4.976397904632568,7.5833200000000005Q4.935358904632569,7.6447400000000005,4.907089904632568,7.71299Q4.878821904632568,7.78123,4.864410904632568,7.853680000000001Q4.849999904632568,7.926130000000001,4.849999904632568,8Q4.849999904632568,8.07387,4.864410904632568,8.14632Q4.878821904632568,8.21877,4.907089904632568,8.28701Q4.935358904632569,8.355260000000001,4.976397904632568,8.41668Q5.017436904632568,8.478100000000001,5.069669904632568,8.53033L9.069279904632568,12.52994L9.069669904632569,12.53033Q9.175159904632569,12.63582,9.312989904632568,12.69291Q9.450819904632569,12.75,9.599999904632568,12.75Q9.74917990463257,12.75,9.887009904632569,12.69291Q10.024839904632568,12.63582,10.130329904632568,12.53033Q10.235819904632567,12.42484,10.29290990463257,12.28701Q10.349999904632568,12.14918,10.349999904632568,12Q10.349999904632568,11.850819999999999,10.29290990463257,11.71299Q10.235819904632567,11.57516,10.130329904632568,11.46967L6.660659904632569,8Z" fill-rule="evenodd" fill="#7D8998" fill-opacity="1"/></g></g></svg>