<svg xmlns="http://www.w3.org/2000/svg" xmlns:xlink="http://www.w3.org/1999/xlink" fill="none" version="1.1" width="16" height="16" viewBox="0 0 16 16"><defs><clipPath id="master_svg0_1433_01751"><rect x="0" y="0" width="16" height="16" rx="0"/></clipPath></defs><g clip-path="url(#master_svg0_1433_01751)"><g><path d="M1.06650390625,6.33349609375L1.06650390625,13.66682609375Q1.06650390625,14.19150609375,1.43750390625,14.56250609375Q1.80850090625,14.93349609375,2.33317090625,14.93349609375L13.66650390625,14.93349609375Q14.19120390625,14.93349609375,14.56220390625,14.56250609375Q14.93320390625,14.19150609375,14.93320390625,13.66682609375L14.93320390625,6.33349609375Q14.93320390625,6.2744012937499996,14.92160390625,6.21644209375Q14.91010390625,6.15848209375,14.88750390625,6.10388609375Q14.86490390625,6.04928909375,14.83200390625,6.00015409375Q14.79920390625,5.95101809375,14.75740390625,5.90923209375Q14.71560390625,5.86744609375,14.66650390625,5.83461409375Q14.61740390625,5.80178309375,14.56280390625,5.77916809375Q14.50820390625,5.75655409375,14.45020390625,5.74502509375Q14.39230390625,5.73349609375,14.33320390625,5.73349609375L1.66650390625,5.73349609375Q1.60740910625,5.73349609375,1.54944990625,5.74502509375Q1.49148990625,5.75655409375,1.43689390625,5.77916809375Q1.3822969062500001,5.80178309375,1.33316190625,5.83461409375Q1.2840259062500001,5.86744609375,1.24223990625,5.90923209375Q1.20045390625,5.95101809375,1.16762190625,6.00015409375Q1.1347909062500001,6.04928909375,1.11217590625,6.10388609375Q1.0895619062500002,6.15848209375,1.07803290625,6.21644209375Q1.06650390625,6.2744012937499996,1.06650390625,6.33349609375ZM2.33317090625,13.73349609375Q2.26650390625,13.73349609375,2.26650390625,13.66682609375L2.26650390625,6.93349609375L13.73320390625,6.93349609375L13.73320390625,13.66682609375Q13.73320390625,13.73349609375,13.66650390625,13.73349609375L2.33317090625,13.73349609375Z" fill-rule="evenodd" fill="#0E56E6" fill-opacity="1"/></g><g><path d="M1.06650390625,3.33317090625L1.06650390625,6.33317390625Q1.06650390625,6.39226390625,1.07803290625,6.450223906250001Q1.0895619062500002,6.50818390625,1.11217590625,6.56278390625Q1.1347909062500001,6.61737390625,1.16762190625,6.66651390625Q1.20045390625,6.71564390625,1.24223990625,6.75743390625Q1.2840259062500001,6.79922390625,1.33316190625,6.83205390625Q1.3822969062500001,6.86488390625,1.43689390625,6.88749390625Q1.49148990625,6.91011390625,1.54944990625,6.92164390625Q1.60740910625,6.93317390625,1.66650390625,6.93317390625L14.33320390625,6.93317390625Q14.39230390625,6.93317390625,14.45020390625,6.92164390625Q14.50820390625,6.91011390625,14.56280390625,6.88749390625Q14.61740390625,6.86488390625,14.66650390625,6.83205390625Q14.71560390625,6.79922390625,14.75740390625,6.75743390625Q14.79920390625,6.71564390625,14.83200390625,6.66651390625Q14.86490390625,6.61737390625,14.88750390625,6.56278390625Q14.91010390625,6.50818390625,14.92160390625,6.450223906250001Q14.93320390625,6.39226390625,14.93320390625,6.33317390625L14.93320390625,3.33317090625Q14.93320390625,2.80849990625,14.56220390625,2.43750390625Q14.19120390625,2.06650390625,13.66650390625,2.06650390625L2.33317090625,2.06650390625Q1.80849990625,2.06650390625,1.43750190625,2.43750190625Q1.06650390625,2.80849990625,1.06650390625,3.33317090625ZM2.26650390625,5.73317390625L13.73320390625,5.73317390625L13.73320390625,3.33317090625Q13.73320390625,3.26650390625,13.66650390625,3.26650390625L2.33317090625,3.26650390625Q2.26650390625,3.26650390625,2.26650390625,3.33317090625L2.26650390625,5.73317390625Z" fill-rule="evenodd" fill="#0E56E6" fill-opacity="1"/></g><g><path d="M10.938723125,9.11342084375L10.938913125,9.11322884375Q11.023303125,9.02883784375,11.068973125,8.91857484375Q11.114653125,8.80831184375,11.114653125,8.6889648262922Q11.114653125,8.56961784375,11.068973125,8.45935484375Q11.023303125,8.34909184375,10.938913125,8.26470084375Q10.854523125,8.18030984375,10.744263125,8.13463684375Q10.633993125,8.08896484375,10.514653124999999,8.08896484375Q10.395303125,8.08896484375,10.285043125,8.13463684375Q10.174773125,8.18030984375,10.090383124999999,8.26470084375L7.568683125,10.78640484375L6.520063125,9.73777484375L6.519967125,9.73768484375Q6.435576125,9.65329084375,6.325313125,9.60761884375Q6.215050125,9.56194684375,6.095703125,9.56194684375Q5.976356125,9.56194684375,5.866093125,9.60761884375Q5.755830125,9.65329084375,5.671439125,9.73768484375Q5.587048125,9.82207484375,5.541375125,9.93233484375Q5.495703125,10.04259484375,5.495703125,10.16194484375Q5.495703125,10.28129484375,5.541375125,10.39155484375Q5.587048125,10.501814843750001,5.671439125,10.58621484375L5.671535125,10.58630484375L7.144423125,12.05919484375Q7.1862031250000005,12.10097484375,7.235343125,12.13381484375Q7.2844831249999995,12.16664484375,7.3390731250000005,12.18925484375Q7.393673125,12.21187484375,7.451633125,12.22339484375Q7.509593125,12.234924843750001,7.568683125,12.234924843750001Q7.6277831250000006,12.234924843750001,7.685743125,12.22339484375Q7.743703125,12.21187484375,7.798293125,12.18925484375Q7.852893125,12.16664484375,7.9020231249999995,12.13381484375Q7.951163125,12.10097484375,7.992953125,12.05919484375L10.938723125,9.11342084375Z" fill-rule="evenodd" fill="#0E56E6" fill-opacity="1"/></g><g><path d="M4.73349609375,1.66650390625L4.73349609375,4.33317390625Q4.73349609375,4.39226390625,4.74502509375,4.450223906250001Q4.75655409375,4.50818390625,4.77916809375,4.56278390625Q4.80178309375,4.61737390625,4.83461409375,4.66651390625Q4.86744609375,4.7156439062499995,4.90923209375,4.75743390625Q4.95101809375,4.79922390625,5.00015409375,4.83205390625Q5.04928909375,4.86488390625,5.10388609375,4.8874939062500005Q5.15848209375,4.91011390625,5.21644209375,4.92164390625Q5.2744012937499996,4.9331739062499995,5.33349609375,4.9331739062499995Q5.3925908937500004,4.9331739062499995,5.45055009375,4.92164390625Q5.50851009375,4.91011390625,5.56310609375,4.8874939062500005Q5.61770309375,4.86488390625,5.66683809375,4.83205390625Q5.71597409375,4.79922390625,5.75776009375,4.75743390625Q5.79954609375,4.7156439062499995,5.83237809375,4.66651390625Q5.86520909375,4.61737390625,5.88782409375,4.56278390625Q5.91043809375,4.50818390625,5.92196709375,4.450223906250001Q5.93349609375,4.39226390625,5.93349609375,4.33317390625L5.93349609375,1.66650390625Q5.93349609375,1.60740910625,5.92196709375,1.54944990625Q5.91043809375,1.49148990625,5.88782409375,1.43689390625Q5.86520909375,1.3822969062500001,5.83237809375,1.33316190625Q5.79954609375,1.2840259062500001,5.75776009375,1.24223990625Q5.71597409375,1.20045390625,5.66683809375,1.16762190625Q5.61770309375,1.1347909062500001,5.56310609375,1.11217590625Q5.50851009375,1.0895619062500002,5.45055009375,1.07803290625Q5.3925908937500004,1.06650390625,5.33349609375,1.06650390625Q5.2744012937499996,1.06650390625,5.21644209375,1.07803290625Q5.15848209375,1.0895619062500002,5.10388609375,1.11217590625Q5.04928909375,1.1347909062500001,5.00015409375,1.16762190625Q4.95101809375,1.20045390625,4.90923209375,1.24223990625Q4.86744609375,1.2840259062500001,4.83461409375,1.33316190625Q4.80178309375,1.3822969062500001,4.77916809375,1.43689390625Q4.75655409375,1.49148990625,4.74502509375,1.54944990625Q4.73349609375,1.60740910625,4.73349609375,1.66650390625Z" fill-rule="evenodd" fill="#0E56E6" fill-opacity="1"/></g><g><path d="M10.06650390625,1.66650390625L10.06650390625,4.33317390625Q10.06650390625,4.39226390625,10.07803290625,4.450223906250001Q10.08956190625,4.50818390625,10.11217590625,4.56278390625Q10.13479090625,4.61737390625,10.16762190625,4.66651390625Q10.20045390625,4.7156439062499995,10.24223990625,4.75743390625Q10.28402590625,4.79922390625,10.33316190625,4.83205390625Q10.38229690625,4.86488390625,10.43689390625,4.8874939062500005Q10.491489906249999,4.91011390625,10.54944990625,4.92164390625Q10.60740910625,4.9331739062499995,10.66650390625,4.9331739062499995Q10.72559870625,4.9331739062499995,10.78355790625,4.92164390625Q10.841517906250001,4.91011390625,10.89611390625,4.8874939062500005Q10.95071090625,4.86488390625,10.99984590625,4.83205390625Q11.04898190625,4.79922390625,11.09076790625,4.75743390625Q11.13255390625,4.7156439062499995,11.16538590625,4.66651390625Q11.19821690625,4.61737390625,11.22083190625,4.56278390625Q11.24344590625,4.50818390625,11.25497490625,4.450223906250001Q11.26650390625,4.39226390625,11.26650390625,4.33317390625L11.26650390625,1.66650390625Q11.26650390625,1.60740910625,11.25497490625,1.54944990625Q11.24344590625,1.49148990625,11.22083190625,1.43689390625Q11.19821690625,1.3822969062500001,11.16538590625,1.33316190625Q11.13255390625,1.2840259062500001,11.09076790625,1.24223990625Q11.04898190625,1.20045390625,10.99984590625,1.16762190625Q10.95071090625,1.1347909062500001,10.89611390625,1.11217590625Q10.841517906250001,1.0895619062500002,10.78355790625,1.07803290625Q10.72559870625,1.06650390625,10.66650390625,1.06650390625Q10.60740910625,1.06650390625,10.54944990625,1.07803290625Q10.491489906249999,1.0895619062500002,10.43689390625,1.11217590625Q10.38229690625,1.1347909062500001,10.33316190625,1.16762190625Q10.28402590625,1.20045390625,10.24223990625,1.24223990625Q10.20045390625,1.2840259062500001,10.16762190625,1.33316190625Q10.13479090625,1.3822969062500001,10.11217590625,1.43689390625Q10.08956190625,1.49148990625,10.07803290625,1.54944990625Q10.06650390625,1.60740910625,10.06650390625,1.66650390625Z" fill-rule="evenodd" fill="#0E56E6" fill-opacity="1"/></g></g></svg>