<svg xmlns="http://www.w3.org/2000/svg" xmlns:xlink="http://www.w3.org/1999/xlink" fill="none" version="1.1" width="24" height="24" viewBox="0 0 24 24"><defs><clipPath id="master_svg0_1269_3399"><rect x="0" y="0" width="24" height="24" rx="0"/></clipPath><mask id="master_svg1_1269_3405"><g><rect x="0" y="0" width="24" height="24" rx="0" fill="#FFFFFF" fill-opacity="1"/></g></mask></defs><g clip-path="url(#master_svg0_1269_3399)" mask="url(#master_svg1_1269_3405)"><g><g style="opacity:0.20000000298023224;"><path d="M5,8.375L12.5,12.75L20,8.375L12.5,4L5,8.375Z" fill="#000000" fill-opacity="1"/></g><g><path d="M20.5036,16.738919L20.5039,16.738779Q20.6757,16.638553,20.7961,16.480204Q20.9165,16.321856,20.967100000000002,16.129493Q21,16.004378,21,15.87500388669Q21,15.8569974,20.9994,15.8390064Q20.990299999999998,15.588045,20.863799999999998,15.371129Q20.7977,15.257902,20.704700000000003,15.165524Q20.6117,15.073145,20.4981,15.007858Q20.3844,14.94257,20.2577,14.908785Q20.1311,14.875,20,14.875L19.9999,14.875Q19.729599999999998,14.875035,19.4961,15.011221L19.4959,15.011361L12.5,19.0923L5.503985,15.011288L5.503871,15.011221Q5.27035,14.875,5.000000819529,14.875Q4.9745182,14.875,4.9490696,14.876298Q4.824621,14.882643999999999,4.705536,14.919337Q4.58645,14.956031,4.480012,15.020827Q4.373573,15.085622,4.286291,15.174558Q4.199009,15.263493,4.136221,15.371129Q4,15.604651,4,15.875Q4,15.9004813,4.001298,15.9259304Q4.007644,16.050379,4.044337,16.169464Q4.081031,16.28855,4.145827,16.394988Q4.210622,16.501427,4.299558,16.588709Q4.388493,16.675991,4.496129,16.738779L4.496243,16.738846L11.99613,21.11378Q12.11083,21.18069,12.23902,21.21534Q12.36721,21.25,12.5,21.25Q12.63279,21.25,12.76098,21.21534Q12.88917,21.18069,13.00387,21.11378L20.5036,16.738919Z" fill-rule="evenodd" fill="#797979" fill-opacity="1"/></g><g><path d="M20.5036,12.988919L20.5039,12.988779Q20.6757,12.888553,20.7961,12.730204Q20.9165,12.571856,20.967100000000002,12.379493Q21,12.254377999999999,21,12.12500388669Q21,12.1069974,20.9994,12.0890064Q20.990299999999998,11.838045,20.863799999999998,11.621129Q20.7977,11.507902,20.704700000000003,11.415524Q20.6117,11.323145,20.4981,11.257858Q20.3844,11.19257,20.2577,11.158785Q20.1311,11.125,20,11.125L19.9999,11.125Q19.729599999999998,11.125035,19.4961,11.261221L19.4959,11.261361L12.5,15.3423L5.503985,11.261288L5.503871,11.261221Q5.27035,11.125,5.000000819529,11.125Q4.9745182,11.125,4.9490696,11.126298Q4.824621,11.132643999999999,4.705536,11.169337Q4.58645,11.206031,4.480012,11.270827Q4.373573,11.335622,4.286291,11.424558Q4.199009,11.513493,4.136221,11.621129Q4,11.854651,4,12.125Q4,12.1504813,4.001298,12.1759304Q4.007644,12.300379,4.044337,12.419464Q4.081031,12.53855,4.145827,12.644988Q4.210622,12.751427,4.299558,12.838709Q4.388493,12.925991,4.496129,12.988779L4.496243,12.988846L11.99613,17.36378Q12.11083,17.43069,12.23902,17.46534Q12.36721,17.5,12.5,17.5Q12.63279,17.5,12.76098,17.46534Q12.88917,17.43069,13.00387,17.36378L20.5036,12.988919Z" fill-rule="evenodd" fill="#797979" fill-opacity="1"/></g><g><path d="M5,8.375L12.5,12.75L20,8.375L12.5,4L5,8.375Z" fill="#D8DCE0" fill-opacity="1"/><path d="M13.00387,3.136221Q12.88917,3.069312,12.76098,3.034656Q12.63279,3,12.5,3Q12.36721,3,12.23902,3.034656Q12.11083,3.069312,11.99613,3.136221L4.496129,7.51122Q4.324313,7.61145,4.20393,7.7698Q4.083547,7.92814,4.032926,8.12051Q3.9823,8.31287,4.009149,8.50996Q4.035995,8.707049999999999,4.136221,8.87887Q4.268819,9.10618,4.496129,9.23878L11.99613,13.61378Q12.11083,13.68069,12.23902,13.71534Q12.36721,13.75,12.5,13.75Q12.63279,13.75,12.76098,13.71534Q12.88917,13.68069,13.00387,13.61378L20.5039,9.23878Q20.588900000000002,9.18915,20.6627,9.12388Q20.7365,9.05861,20.7961,8.9802Q20.8557,8.9018,20.8988,8.81327Q20.942,8.72474,20.967100000000002,8.62949Q20.9921,8.53424,20.9981,8.43594Q21.0041,8.33763,20.9908,8.24004Q20.977600000000002,8.14245,20.9455,8.04932Q20.9134,7.9562,20.863799999999998,7.87113Q20.7312,7.64382,20.5039,7.51122L13.00387,3.136221ZM12.5,5.1577L6.98463,8.375L12.5,11.5923L18.0154,8.375L12.5,5.1577Z" fill-rule="evenodd" fill="#797979" fill-opacity="1"/></g></g></g></svg>