<svg xmlns="http://www.w3.org/2000/svg" xmlns:xlink="http://www.w3.org/1999/xlink" fill="none" version="1.1" width="20" height="20" viewBox="0 0 20 20"><g><g><path d="M0,14C0,17.3137,2.68629,20,6,20L14,20C17.3137,20,20,17.3137,20,14L20,6C20,2.68629,17.3137,0,14,0L6,0C2.68629,0,0,2.68629,0,6L0,14Z" fill="#E2F6F0" fill-opacity="1"/><path d="M0,14C0,17.3137,2.68629,20,6,20L14,20C17.3137,20,20,17.3137,20,14L20,6C20,2.68629,17.3137,0,14,0L6,0C2.68629,0,0,2.68629,0,6L0,14ZM1,14Q1,16.0711,2.46447,17.5355Q3.92893,19,6,19L14,19Q16.0711,19,17.5355,17.5355Q19,16.0711,19,14L19,6Q19,3.92893,17.5355,2.46447Q16.0711,1,14,1L6,1Q3.92893,1,2.46447,2.46447Q1,3.92893,1,6L1,14Z" fill-rule="evenodd" fill="#07D498" fill-opacity="1"/></g><g><path d="M14.54796,8.512093L14.54829,8.511739Q14.64551,8.40758,14.69775,8.275029Q14.75,8.142477,14.75,8.000000000000005Q14.75,7.9870728,14.74955,7.9741533Q14.74441,7.825058,14.68261,7.689279Q14.6208,7.5535,14.51174,7.451709Q14.40758,7.354495,14.275030000000001,7.302248Q14.142479999999999,7.25,14,7.25L13.99889,7.250001Q13.986519999999999,7.250019,13.97415,7.250445Q13.82506,7.255587,13.68928,7.317393Q13.5535,7.379199,13.45171,7.488261L13.45138,7.488616L9.33333,11.90081L7.548497,9.98848L7.548292,9.98826Q7.441908,9.87428,7.298911,9.81214Q7.155915,9.75,6.999999999999996,9.75L6.9870287,9.75011Q6.84793,9.75252,6.718948,9.80465Q6.589965,9.85678,6.488261,9.95171Q6.3792,10.0535,6.317393,10.18928Q6.255587,10.32506,6.250445,10.47415Q6.25,10.48707,6.25,10.5L6.250069,10.51019Q6.251969,10.65002,6.304131,10.77976Q6.356294,10.909510000000001,6.451708,11.01174L6.451914,11.01196L8.78504,13.51174Q8.80269,13.53065,8.82159,13.54829Q8.8756,13.598690000000001,8.93839,13.63759Q9.00119,13.676490000000001,9.07037,13.702390000000001Q9.13955,13.728290000000001,9.21245,13.74019Q9.285350000000001,13.7521,9.35918,13.74955Q9.433,13.74701,9.50491,13.73011Q9.57682,13.71321,9.64405,13.68261Q9.71128,13.652000000000001,9.77125,13.60887Q9.83122,13.56574,9.88162,13.51174L14.54796,8.512093Z" fill-rule="evenodd" fill="#07D498" fill-opacity="1"/></g></g></svg>