<svg xmlns="http://www.w3.org/2000/svg" xmlns:xlink="http://www.w3.org/1999/xlink" fill="none" version="1.1" width="20" height="20" viewBox="0 0 20 20"><g><g><path d="M0,14C0,17.3137,2.68629,20,6,20L14,20C17.3137,20,20,17.3137,20,14L20,6C20,2.68629,17.3137,0,14,0L6,0C2.68629,0,0,2.68629,0,6L0,14Z" fill="#F8E7D8" fill-opacity="1"/><path d="M0,14C0,17.3137,2.68629,20,6,20L14,20C17.3137,20,20,17.3137,20,14L20,6C20,2.68629,17.3137,0,14,0L6,0C2.68629,0,0,2.68629,0,6L0,14ZM1,14Q1,16.0711,2.46447,17.5355Q3.92893,19,6,19L14,19Q16.0711,19,17.5355,17.5355Q19,16.0711,19,14L19,6Q19,3.92893,17.5355,2.46447Q16.0711,1,14,1L6,1Q3.92893,1,2.46447,2.46447Q1,3.92893,1,6L1,14Z" fill-rule="evenodd" fill="#EF9C4F" fill-opacity="1"/></g><g><g><path d="M7.711837,5.448671125Q6.75,6.375453125,6.75,7.6920931249999995Q6.75,7.765963125,6.764411,7.838403125Q6.778822,7.910853125,6.80709,7.979103125Q6.835359,8.047343125,6.876398,8.108763125Q6.917437,8.170183125,6.96967,8.222423125Q7.021903,8.274653125,7.083322,8.315693125Q7.144742,8.356733125,7.212987,8.385003125Q7.281233,8.413263125,7.353682,8.427683125Q7.4261315,8.442093125,7.5,8.442093125Q7.5738685,8.442093125,7.646318,8.427683125Q7.718767,8.413263125,7.787013,8.385003125Q7.855258,8.356733125,7.916678,8.315693125Q7.978097,8.274653125,8.03033,8.222423125Q8.082563,8.170183125,8.123602,8.108763125Q8.164641,8.047343125,8.19291,7.979103125Q8.221178,7.910853125,8.235589000000001,7.838403125Q8.25,7.765963125,8.25,7.6920931249999995Q8.25,7.013143125,8.75263,6.528833125Q9.267009999999999,6.033203125,10,6.033203125Q10.732990000000001,6.033203125,11.24737,6.528833125Q11.75,7.013143125,11.75,7.6920931249999995Q11.75,8.371033125,11.24737,8.855353125Q10.732990000000001,9.350973125,10,9.350973125Q9.92613,9.350973125,9.85368,9.365383125000001Q9.78123,9.379803124999999,9.71299,9.408063125Q9.64474,9.436333125,9.58332,9.477373125Q9.5219,9.518413125,9.46967,9.570643125Q9.41744,9.622883125000001,9.3764,9.684303125Q9.33536,9.745723125,9.30709,9.813963125Q9.27882,9.882213125,9.26441,9.954663125Q9.25,10.027113125,9.25,10.100973125L9.25,11.706903125Q9.25,11.780773125,9.26441,11.853223125Q9.27882,11.925663125,9.30709,11.993913124999999Q9.33536,12.062163125,9.3764,12.123573125Q9.41744,12.184993125,9.46967,12.237233125Q9.5219,12.289463125000001,9.58332,12.330503125Q9.64474,12.371543124999999,9.71299,12.399813125Q9.78123,12.428083125,9.85368,12.442493125Q9.92613,12.456903125,10,12.456903125Q10.07387,12.456903125,10.14632,12.442493125Q10.21877,12.428083125,10.28701,12.399813125Q10.35526,12.371543124999999,10.41668,12.330503125Q10.4781,12.289463125000001,10.53033,12.237233125Q10.58256,12.184993125,10.6236,12.123583125Q10.66464,12.062163125,10.69291,11.993913124999999Q10.72118,11.925663125,10.73559,11.853223125Q10.75,11.780773125,10.75,11.706903125L10.75,10.772563125Q11.61614,10.583043125,12.288160000000001,9.935513125Q13.25,9.008723125,13.25,7.6920931249999995Q13.25,6.375453125,12.288160000000001,5.448671125Q11.33807,4.533203125,10,4.533203125Q8.66193,4.533203125,7.711837,5.448671125Z" fill-rule="evenodd" fill="#EF9C4F" fill-opacity="1"/></g><g><path d="M10.75,13.96728515625Q10.75,14.04115415625,10.73559,14.11360315625Q10.72118,14.18605215625,10.69291,14.25429515625Q10.66464,14.32254515625,10.6236,14.38396515625Q10.58256,14.44538515625,10.53033,14.49761515625Q10.4781,14.54984515625,10.41668,14.59088515625Q10.35526,14.63192515625,10.28701,14.66019515625Q10.218767,14.68846515625,10.146318,14.70287515625Q10.073869,14.71728515625,10,14.71728515625Q9.926131,14.71728515625,9.853682,14.70287515625Q9.781233,14.68846515625,9.712987,14.66019515625Q9.644742,14.63192515625,9.583322,14.59088515625Q9.521903,14.54984515625,9.46967,14.49761515625Q9.417437,14.44538515625,9.376398,14.38396515625Q9.3353586,14.32254515625,9.3070903,14.25429515625Q9.2788221,14.18605215625,9.264411,14.11360315625Q9.25,14.04115415625,9.25,13.96728515625Q9.25,13.89341615625,9.264411,13.82096715625Q9.2788221,13.74851815625,9.3070903,13.68027215625Q9.3353586,13.61202715625,9.376398,13.55060715625Q9.417437,13.48918815625,9.46967,13.43695515625Q9.521903,13.38472215625,9.583322,13.34368315625Q9.644742,13.30264375625,9.712987,13.27437545625Q9.781233,13.24610725625,9.853682,13.23169615625Q9.926131,13.21728515625,10,13.21728515625Q10.073869,13.21728515625,10.146318,13.23169615625Q10.218767,13.24610725625,10.28701,13.27437545625Q10.35526,13.30264375625,10.41668,13.34368315625Q10.4781,13.38472215625,10.53033,13.43695515625Q10.58256,13.48918815625,10.6236,13.55060715625Q10.66464,13.61202715625,10.69291,13.68027215625Q10.72118,13.74851815625,10.73559,13.82096715625Q10.75,13.89341615625,10.75,13.96728515625Z" fill="#EF9C4F" fill-opacity="1"/></g></g></g></svg>