<svg xmlns="http://www.w3.org/2000/svg" xmlns:xlink="http://www.w3.org/1999/xlink" fill="none" version="1.1" width="32.0087890625" height="32" viewBox="0 0 32.0087890625 32"><g><g><g><path d="M32.00869453125,16Q32.00869453125,16.3928,31.98939453125,16.7851Q31.97019453125,17.1774,31.93169453125,17.5683Q31.89309453125,17.9592,31.83549453125,18.3477Q31.77779453125,18.7362,31.70119453125,19.1214Q31.62449453125,19.5067,31.52909453125,19.8877Q31.43359453125,20.2687,31.31959453125,20.6446Q31.20549453125,21.0204,31.07319453125,21.3902Q30.94079453125,21.7601,30.79049453125,22.1229Q30.64009453125,22.4858,30.47209453125,22.8409Q30.30409453125,23.1959,30.11889453125,23.5423Q29.93369453125,23.8887,29.73179453125,24.2256Q29.52979453125,24.5625,29.31149453125,24.8891Q29.09319453125,25.2157,28.85919453125,25.5312Q28.62509453125,25.8467,28.37589453125,26.1503Q28.12669453125,26.4539,27.86279453125,26.7449Q27.59899453125,27.036,27.32119453125,27.3137Q27.04329453125,27.5914,26.75219453125,27.8552Q26.46109453125,28.119,26.15739453125,28.3682Q25.85369453125,28.6173,25.53819453125,28.8513Q25.22259453125,29.0853,24.89589453125,29.3035Q24.56919453125,29.5217,24.23229453125,29.7237Q23.89529453125,29.9256,23.54879453125,30.1107Q23.20229453125,30.2959,22.84709453125,30.4638Q22.49199453125,30.6318,22.12899453125,30.7821Q21.76599453125,30.9324,21.39609453125,31.0647Q21.02619453125,31.197,20.65019453125,31.311Q20.27419453125,31.4251,19.89309453125,31.5205Q19.51199453125,31.6159,19.12669453125,31.6926Q18.74129453125,31.7692,18.35269453125,31.8268Q17.96409453125,31.8845,17.57309453125,31.923Q17.18209453125,31.9615,16.78969453125,31.9807Q16.39729453125,32,16.00439453125,32Q15.61149453125,32,15.21909453125,31.9807Q14.82669453125,31.9615,14.43569453125,31.923Q14.04469453125,31.8845,13.65609453125,31.8268Q13.26739453125,31.7692,12.88209453125,31.6926Q12.49679453125,31.6159,12.11569453125,31.5205Q11.73459453125,31.4251,11.35859453125,31.311Q10.98259453125,31.197,10.61269453125,31.0647Q10.24279453125,30.9324,9.87981453125,30.7821Q9.51683453125,30.6318,9.16167453125,30.4638Q8.80650453125,30.2959,8.46001453125,30.1107Q8.11352453125,29.9256,7.77653453125,29.7237Q7.43954453125,29.5217,7.11287453125,29.3035Q6.78620453125,29.0853,6.47063453125,28.8513Q6.15506453125,28.6173,5.85136453125,28.3682Q5.54766453125,28.119,5.25655453125,27.8552Q4.96544453125,27.5914,4.68763453125,27.3137Q4.40982453125,27.036,4.14598453125,26.7449Q3.88213453125,26.4539,3.63289453125,26.1503Q3.38365453125,25.8467,3.14960453125,25.5312Q2.91556453125,25.2157,2.69729453125,24.8891Q2.47901453125,24.5625,2.27703453125,24.2256Q2.07505453125,23.8887,1.88985453125,23.5423Q1.70464453125,23.1959,1.53666453125,22.8409Q1.36868453125,22.4858,1.21833453125,22.1229Q1.06798453125,21.7601,0.93562753125,21.3902Q0.80326953125,21.0204,0.68922153125,20.6446Q0.57517353125,20.2687,0.47971053125,19.8877Q0.38424753125,19.5067,0.30759953125,19.1214Q0.23095153125,18.7362,0.17330353125,18.3477Q0.11565553125,17.9592,0.07714603125,17.5683Q0.03863673125,17.1774,0.01935883125,16.7851Q0.0000809312500000001,16.3928,0.0000809312500000001,16Q0.0000809312500000001,15.6072,0.01935883125,15.2149Q0.03863673125,14.8226,0.07714603125,14.4317Q0.11565553125,14.0408,0.17330353125,13.6523Q0.23095153125,13.2638,0.30759953125,12.8786Q0.38424753125,12.4933,0.47971053125,12.1123Q0.57517253125,11.7313,0.68922153125,11.3554Q0.80326953125,10.9796,0.93562753125,10.6098Q1.06798453125,10.2399,1.21833453125,9.87706Q1.36868453125,9.51418,1.53666453125,9.15912Q1.70464453125,8.80405,1.88985453125,8.45765Q2.07505453125,8.11125,2.27703453125,7.77436Q2.47901453125,7.43746,2.69729453125,7.11088Q2.91556453125,6.78429,3.14960453125,6.46881Q3.38365453125,6.15333,3.63289453125,5.84971Q3.88213453125,5.54609,4.14598453125,5.25506Q4.40982453125,4.96403,4.68763453125,4.68629Q4.96544453125,4.40856,5.25655453125,4.14478Q5.54766453125,3.88101,5.85136453125,3.63183Q6.15506453125,3.38266,6.47063453125,3.14868Q6.78620453125,2.9147,7.11287453125,2.69649Q7.43954453125,2.47827,7.77653453125,2.27634Q8.11352453125,2.07441,8.46001453125,1.88926Q8.80650453125,1.70411,9.16166453125,1.53617Q9.51683453125,1.36824,9.87980453125,1.21793Q10.24279453125,1.06762,10.61269453125,0.935295Q10.98259453125,0.802972,11.35859453125,0.688955Q11.73459453125,0.574937,12.11569453125,0.4795Q12.49679453125,0.384063,12.88209453125,0.307435Q13.26749453125,0.230808,13.65609453125,0.173176Q14.04469453125,0.115543,14.43569453125,0.0770444Q14.82669453125,0.0385454,15.21909453125,0.0192727Q15.61149453125,0,16.00439453125,0Q16.39729453125,0,16.78969453125,0.0192727Q17.18209453125,0.0385454,17.57309453125,0.0770444Q17.96409453125,0.115543,18.35269453125,0.173176Q18.74139453125,0.230808,19.12669453125,0.307435Q19.51199453125,0.384063,19.89309453125,0.4795Q20.27419453125,0.574937,20.65019453125,0.688955Q21.02619453125,0.802972,21.39609453125,0.935295Q21.76599453125,1.06762,22.12899453125,1.21793Q22.49199453125,1.36824,22.84709453125,1.53617Q23.20229453125,1.70411,23.54879453125,1.88926Q23.89529453125,2.07441,24.23229453125,2.27634Q24.56919453125,2.47827,24.89589453125,2.69649Q25.22259453125,2.9147,25.53819453125,3.14868Q25.85369453125,3.38266,26.15739453125,3.63183Q26.46109453125,3.88101,26.75219453125,4.14478Q27.04329453125,4.40856,27.32119453125,4.68629Q27.59899453125,4.96403,27.86279453125,5.25506Q28.12669453125,5.54609,28.37589453125,5.84971Q28.62509453125,6.15333,28.85919453125,6.46881Q29.09319453125,6.78429,29.31149453125,7.11088Q29.52979453125,7.43746,29.73179453125,7.77436Q29.93369453125,8.11125,30.11889453125,8.45765Q30.30409453125,8.80405,30.47209453125,9.15912Q30.64009453125,9.51418,30.79049453125,9.87706Q30.94079453125,10.2399,31.07319453125,10.6098Q31.20549453125,10.9796,31.31959453125,11.3554Q31.43359453125,11.7313,31.52909453125,12.1123Q31.62449453125,12.4933,31.70119453125,12.8786Q31.77779453125,13.2638,31.83549453125,13.6523Q31.89309453125,14.0408,31.93169453125,14.4317Q31.97019453125,14.8226,31.98939453125,15.2149Q32.00869453125,15.6072,32.00869453125,16Z" fill="#FFD8EA" fill-opacity="1"/></g><g><path d="M13.48564003125,8.521538775C13.26241783125,8.521538775,13.25271263125,8.521538775,13.35947063125,8.464473345C13.70853303125,8.445081275,14.05858803125,8.477141575,14.39793703125,8.559582375C15.29527703125,8.807915375,16.08993703125,9.327071375,16.66898703125,10.043274375L16.872797031250002,10.271534375L17.16395703125,10.223984375C18.35582703125,10.029964375,19.57953703125,10.178624375,20.68698703125,10.651974375C20.96587703125,10.780124375,21.23225703125,10.932924374999999,21.48281703125,11.108494375C21.518467031249997,11.206734375,21.54129703125,11.308994375000001,21.55075703125,11.412844375C21.64104703125,11.808084375,21.60024703125,12.221254375000001,21.43429703125,12.592194375C21.362567031250002,12.695504374999999,21.362567031250002,12.831274375,21.43429703125,12.934584375C21.49128703125,13.047354375000001,21.60681703125,13.120394375,21.73515703125,13.124804375C21.99719703125,13.124804375,22.26894703125,12.706324375000001,22.40482703125,12.173714375L22.40482703125,11.945454375L22.50187703125,12.059584375C23.04616703125,12.642204375,23.41855703125,13.358894375,23.57915703125,14.132954375L23.57915703125,14.285124374999999L23.48215703125,14.142464375C23.35155703125,13.925194375,23.172367031249998,13.739814375,22.958027031249998,13.600344374999999C22.40001703125,13.303684375,21.76633703125,13.171564374999999,21.13342703125,13.219914375C20.44967703125,13.207254375,19.77073703125,13.104894375,19.11471703125,12.915564374999999C18.21212703125,12.630234375,17.755977031249998,12.240294375,16.67868703125,10.861214375C16.36970703125,10.426014375,16.02568703125,10.015734375000001,15.64992703125,9.634314375C15.07301703125,9.040213375,14.31232703125,8.649098375,13.48564003125,8.521538775Z" fill="#FF007A" fill-opacity="1"/></g><g><path d="M21.70792703125,9.77067109375C21.70582703125,9.44153809375,21.77154703125,9.11545009375,21.90107703125,8.81243609375C21.92767703125,8.74898409375,21.959997031249998,8.68804809375,21.99764703125,8.63037109375Q21.99764703125,8.70702999375,21.94936703125,8.79327209375C21.878537031249998,9.10881809375,21.878537031249998,9.43596209375,21.94936703125,9.75151109375C22.02662703125,10.24979109375,22.06525703125,10.31687109375,22.58674703125,10.84390109375C22.80772703125,11.06643109375,23.017237031249998,11.29990109375,23.214467031250003,11.54341109375L23.40765703125,11.78297109375L23.214467031250003,11.61049109375C22.94236703125,11.35948109375,22.65184703125,11.12887109375,22.345317031249998,10.920561093749999L22.21010703125,10.920561093749999C22.16182703125,10.920561093749999,22.152167031250002,11.02596109375,22.14250703125,11.34218109375C22.15844703125,11.72288109375,22.07880703125,12.10155109375,21.91073703125,12.44415109375C21.82381703125,12.616641093750001,21.804507031249997,12.57831109375,21.91073703125,12.38666109375C22.016967031249997,12.19501109375,21.96867703125,12.185431093750001,21.96867703125,11.715891093749999C21.96867703125,10.75766109375,21.85278703125,10.54684109375,21.196097031249998,10.15397109375C21.03191703125,10.05814109375,20.75185703125,9.914411093750001,20.578027031250002,9.83775109375C20.47353703125,9.80014109375,20.37321703125,9.75197109375,20.27864703125,9.69401109375C20.606757031249998,9.75984109375,20.92953703125,9.84951109375,21.24437703125,9.962321093749999C21.630677031250002,10.11564109375,21.69827703125,10.13480109375,21.73690703125,10.11564109375C21.77552703125,10.09647109375,21.68861703125,10.03898109375,21.70792703125,9.77067109375ZM13.99173203125,11.42842109375C13.50767203125,10.742261093749999,13.26344553125,9.91766109375,13.29640458125,9.08074209375L13.29640458125,8.86034709375L13.40263503125,8.86034709375C13.64831203125,8.91465209375,13.88545703125,9.00168209375,14.10761903125,9.11907109375C14.54219703125,9.38737709375,14.73534703125,9.73234109375,14.92848703125,10.63308109375C14.98643703125,10.89181109375,15.06369703125,11.188861093749999,15.09266703125,11.29427109375C15.21451703125,11.56808109375,15.35991703125,11.83097109375,15.527247031249999,12.08002109375C15.65278703125,12.26209109375,15.575527031250001,12.33875109375,15.30512703125,12.31958109375C14.77068703125,12.19535109375,14.30227703125,11.877531093750001,13.99173203125,11.42842109375ZM21.13814703125,16.11420109375C18.96524703125,15.25179109375,18.240957031249998,14.49478109375,18.240957031249998,13.23949109375L18.240957031249998,12.90411109375L18.43409703125,13.03826109375C19.11915703125,13.48031109375,19.91550703125,13.72267109375,20.73253703125,13.73777109375C21.30154703125,13.805081093750001,21.863717031249998,13.92049109375,22.41291703125,14.08274109375C23.62415703125,14.39890109375,24.53765703125,15.38777109375,24.74995703125,16.612491093750002C24.804957031249998,17.06659109375,24.78215703125,17.52665109375,24.68235703125,17.97318109375C24.61125703125,18.25242109375,24.49375703125,18.51796109375,24.33475703125,18.75897109375L24.33475703125,18.615201093750002C24.29655703125,18.13592109375,24.062857031249997,17.69288109375,23.687657031249998,17.388661093750002C22.91244703125,16.83054109375,22.05154703125,16.40020109375,21.13814703125,16.11420109375ZM19.61229703125,16.47833109375C19.58899703125,16.322511093750002,19.55347703125,16.16872109375,19.506057031250002,16.01838109375L19.45777703125,15.85548109375L19.55434703125,15.97047109375C19.71292703125,16.15680109375,19.83420703125,16.37145109375,19.91166703125,16.60290109375C19.979137031249998,16.79669109375,20.00544703125,17.002231093749998,19.98892703125,17.20659109375C20.00816703125,17.40473109375,19.981747031250002,17.60461109375,19.91166703125,17.79112109375C19.81765703125,18.064731093749998,19.662487031250002,18.313701093749998,19.45777703125,18.51938109375C19.00772703125,18.94137109375,18.42407703125,19.195371093749998,17.80637703125,19.23807109375L16.975847031249998,19.29557109375C16.343517031250002,19.30657109375,15.71597703125,19.40657109375,15.11197703125,19.59257109375C15.06712703125,19.598771093750003,15.02162703125,19.598771093750003,14.97677703125,19.59257109375C15.15571703125,19.448071093750002,15.35396703125,19.32867109375,15.56587703125,19.23807109375C16.08932703125,19.018371093749998,16.64249703125,18.876371093750002,17.20761703125,18.81647109375L18.17334703125,18.624781093750002C19.13877703125,18.38412109375,19.76174703125,17.454841093749998,19.61229703125,16.47833109375Z" fill="#FF007A" fill-opacity="1"/></g><g><path d="M20.60125171875,18.238916875C20.317011718750003,17.686986875,20.24424171875,17.050488875,20.39660171875,16.448813875C20.40625171875,16.408601575,20.426431718750003,16.371670975,20.45507171875,16.341796875L20.61100171875,16.419627375C20.74744171875,16.516914875,21.02032171875,16.662847875,21.731751718749997,17.052000875C22.400061718750003,17.361586875,22.99716171875,17.805376875,23.485961718749998,18.355666875C23.79626171875,18.740056875,23.998161718749998,19.200186875,24.07076171875,19.688506875C24.11426171875,20.126846875,24.09456171875,20.569156875,24.01226171875,21.001906875C23.80826171875,21.902276875,23.22596171875,22.671446875,22.413961718750002,23.113056874999998C22.34066171875,23.160646875,22.26216171875,23.199816875,22.18006171875,23.229806875C22.20936171875,23.152336875,22.24526171875,23.077476875000002,22.287261718750003,23.006036875C22.55856171875,22.474106875,22.593961718750002,21.852956875,22.38476171875,21.293766875C22.15516171875,20.730966875,21.85730171875,20.198386875,21.497861718750002,19.707966875C21.15909171875,19.243696875,20.85921171875,18.752346875,20.60125171875,18.238916875ZM12.35639471875,21.614816875C13.14305171875,20.944856875,14.08973171875,20.489096875,15.104681718750001,20.291696875C15.58220171875,20.232746875,16.06618171875,20.252466875,16.53730171875,20.350066875C17.08878171875,20.478786875,17.57812171875,20.795276875,17.921191718750002,21.245116875C18.20392171875,21.695906875,18.365071718750002,22.212036875,18.38898171875,22.743356875C18.437711718750002,23.044956875,18.486431718749998,23.346546875,18.50593171875,23.414646875C18.56091171875,23.749406875,18.72951171875,24.055116875,18.98347171875,24.280516875C19.46295171875,24.529696875,20.03406171875,24.529696875,20.513541718749998,24.280516875L20.698711718749998,24.222136875Q20.42583171875,24.445906875,20.22117171875,24.543196875C19.97686171875,24.677846875,19.70100171875,24.745006875,19.42202171875,24.737766875C18.88635171875,24.720926875,18.39531171875,24.435586875,18.116101718750002,23.978916875C17.97612171875,23.747786875,17.85237171875,23.507226875,17.74576171875,23.258986874999998C17.35594171875,22.363936875,17.16102171875,22.091526875,16.71272171875,21.799666875C16.34785171875,21.544946875,15.87925171875,21.490126875,15.46527171875,21.653726875C14.96935171875,21.888596875,14.82969171875,22.528026875000002,15.18264171875,22.947666875C15.35153171875,23.124586875,15.57422171875,23.240866875000002,15.81612171875,23.278446875C16.22117171875,23.331656875,16.57977171875,23.014976875000002,16.57628171875,22.607156875C16.593881718749998,22.364896875,16.44582171875,22.141196875,16.21569171875,22.062336875C15.85510171875,21.906676875,15.47501171875,22.062336875,15.47501171875,22.422306875C15.47548171875,22.557956875000002,15.56130171875,22.678686875,15.68942171875,22.723896875C15.77713171875,22.723896875,15.77713171875,22.723896875,15.68942171875,22.723896875C15.53939171875,22.682146875,15.42609171875,22.559026875,15.39714171875,22.406246875C15.36818171875,22.253476875,15.428591718749999,22.097536875,15.55298171875,22.003966875C15.94291171875,21.705416875,16.50784171875,21.825596875,16.741951718750002,22.256916875C16.82981171875,22.498916875,16.82981171875,22.764026875,16.741951718750002,23.006036875C16.535491718750002,23.494646875,15.99407171875,23.750216875,15.48476171875,23.599496875C15.094791718749999,23.521956875,14.74363171875,23.312316875,14.49070171875,23.006036875C13.95514171875,22.340626874999998,13.161461718750001,21.933856875,12.30766671875,21.887226875L12.09326171875,21.887226875L12.35639471875,21.614816875Z" fill="#FF007A" fill-opacity="1"/></g><g><path d="M6.73712771875,4.1320868125C9.282376718750001,7.2173128124999995,13.21594671875,12.0133628125,13.40876671875,12.2824728125C13.60158671875,12.5515928125,13.50517671875,12.7053728125,13.235226718749999,12.8591528125C13.039976718750001,12.9594428125,12.82724671875,13.0214328125,12.60855671875,13.0417728125C12.40869671875,13.0353928125,12.218906718749999,12.9528328125,12.07829671875,12.8111028125C11.97224671875,12.7149828125,11.557676718749999,12.0902528125,10.59356671875,10.6005028125C9.85120671875,9.4567528125,9.23416671875,8.5148428125,9.21488671875,8.495622812499999C9.19560671875,8.4764028125,9.21488671875,8.495622812499999,10.51643671875,10.840782812499999C10.92885671875,11.5174528125,11.30224671875,12.2170128125,11.63480671875,12.9360428125C11.63480671875,13.0802128125,11.63480671875,13.1571028125,11.42269671875,13.3589428125C11.08587671875,13.7761328125,10.89916671875,14.2939328125,10.89243671875,14.8294328125C10.75023671875,15.7744328125,10.315406718750001,16.651432812499998,9.64873671875,17.3380328125C9.380446718750001,17.630232812499997,9.14746671875,17.9528328125,8.95457671875,18.299132812499998C8.80900671875,18.5674328125,8.73590671875,18.868832812500003,8.74247671875,19.173832812500002C8.71308671875,19.5388328125,8.76239671875,19.9058328125,8.88709671875,20.2502328125C9.00325671875,20.6190328125,9.17911671875,20.9664328125,9.40770671875,21.2786328125C9.58154671875,21.5261328125,9.70893671875,21.8029328125,9.78371671875,22.0956328125C9.78371671875,22.1917328125,9.78371671875,22.1917328125,10.19827671875,22.0956328125C11.00026671875,21.9572328125,11.74606671875,21.5938328125,12.34824671875,21.0480328125C12.60175671875,20.8325328125,12.72570671875,20.5017328125,12.67603671875,20.1733328125C12.69354671875,20.0185328125,12.666816718749999,19.8619328125,12.59891671875,19.7216328125C12.41964671875,19.408632812500002,12.15571671875,19.1522328125,11.83726671875,18.9815328125C11.35114671875,18.7605328125,10.99512671875,18.3275328125,10.87315671875,17.8089328125C10.83262671875,17.347632812500002,10.95170671875,16.8863328125,11.21059671875,16.5018328125C11.50695671875,15.9843328125,11.678586718750001,15.4052328125,11.71193671875,14.8102328125C11.696466718749999,14.5303328125,11.77444671875,14.2532328125,11.93367671875,14.0221328125C12.09424671875,13.8608328125,12.31314671875,13.7708328125,12.541066718749999,13.7722328125C12.98562671875,13.7441328125,13.40880671875,13.5719928125,13.746206718749999,13.2820528125C13.98101671875,13.0825928125,14.11806671875,12.7918228125,14.12220671875,12.4843128125L14.12220671875,12.2344228125L13.98722671875,12.0614228125C13.47624671875,11.4655228125,6.34184281875,3.66113556232,6.27435508875,3.66113556232C6.20686731875,3.66113556232,6.52502371875,3.8341388125,6.73712771875,4.1320868125ZM10.09222671875,19.6447328125C10.20920671875,19.4413328125,10.15057671875,19.1824328125,9.95725671875,19.048832812500002C9.774076718749999,18.9239328125,9.48483671875,18.9815328125,9.48483671875,19.144932812500002C9.48483671875,19.308332812499998,9.48483671875,19.2218328125,9.571606718750001,19.2506328125C9.65837671875,19.2795328125,9.68730671875,19.366032812500002,9.571606718750001,19.4813328125C9.48834671875,19.567032812500003,9.48834671875,19.7032328125,9.571606718750001,19.7889328125C9.74513671875,19.9479328125,10.02584671875,19.8702328125,10.09222671875,19.6447328125ZM14.52713671875,13.9068328125C14.23549671875,14.0129328125,14.01299671875,14.2526328125,13.92938671875,14.5507328125C13.880876718749999,14.7470328125,13.90129671875,14.9539328125,13.98722671875,15.1370328125C14.10292671875,15.2908328125,14.20897671875,15.3292328125,14.51748671875,15.3292328125C15.11523671875,15.3292328125,15.63585671875,15.0697328125,15.69370671875,14.7525328125C15.69467671875,14.4177328125,15.50373671875,14.1116328125,15.20200671875,13.9644328125C14.98771671875,13.8791328125,14.75285671875,13.8590328125,14.52713671875,13.9068328125ZM15.22128671875,14.4450328125C15.31769671875,14.3200328125,15.27913671875,14.1759328125,15.11523671875,14.0798328125C14.95133671875,13.9836328125,14.37287671875,14.0798328125,14.37287671875,14.3297328125C14.37287671875,14.5795328125,14.60425671875,14.6276328125,14.82600671875,14.6276328125C14.98353671875,14.6140328125,15.12756671875,14.5335328125,15.22128671875,14.4065328125L15.22128671875,14.4450328125Z" fill="#FF007A" fill-opacity="1"/></g></g></g></svg>