<svg xmlns="http://www.w3.org/2000/svg" xmlns:xlink="http://www.w3.org/1999/xlink" fill="none" version="1.1" width="128" height="128" viewBox="0 0 128 128"><defs><mask id="master_svg0_1497_8461"><g><rect x="0" y="0" width="128" height="128" rx="64" fill="#FFFFFF" fill-opacity="1"/></g></mask></defs><g mask="url(#master_svg0_1497_8461)"><g><g><path d="M24.74833,59.7436C23.32916,56.3602,21.88148,52.9929,20.487647,49.6032C19.828746,48.0011,19.774894,46.5141,20.715728,45.1486Q23.97855,40.40616,27.26672,35.68613C28.46098,33.9720793,30.3395,33.812187,32.4239,34.13517Q37.5589,34.931435,42.6875,35.75968Q44.867000000000004,36.11464,45.867999999999995,38.44587Q47.5723,42.414410000000004,49.2512,46.3989Q49.3209,46.565200000000004,49.2164,46.7155L36.8303,64.61070000000001Q36.735299999999995,64.7514,36.5642,64.72579999999999Q32.766,64.1214,28.986829999999998,63.5042C26.49061,63.0981,25.74935,62.132400000000004,24.74833,59.7436ZM22.892,45.6378C22.68444,45.9407,22.81843,46.3592,23.16126,46.478899999999996Q23.47804,46.5908,23.9247,46.6644Q28.70807,47.4414,33.5009,48.2025Q35.012,48.4424,35.8926,47.1856Q38.8482,42.961240000000004,41.794200000000004,38.67612C42.068799999999996,38.27709,41.8356,37.72551,41.3602,37.64961Q36.2252,36.82456,30.9572,36.08266Q29.652070000000002,35.90038,29.015340000000002,36.81177Q25.99644,41.12568,22.892,45.6378Z" fill="#000000" fill-opacity="1"/></g><g><path d="M22.892016633218383,45.637833988723756Q25.996448033218385,41.12566398872376,29.015358033218384,36.811763988723754Q29.652088033218384,35.90037598872375,30.957218033218382,36.082653988723756Q36.22521803321838,36.82455598872375,41.36021803321839,37.649603988723754C41.83561803321838,37.72550398872375,42.068818033218385,38.27707398872376,41.794218033218385,38.676113988723756Q38.84821803321839,42.961233988723755,35.89261803321838,47.18557398872375Q35.01201803321838,48.44237398872376,33.50091803321838,48.20247398872375Q28.708078033218385,47.44147398872376,23.924718033218383,46.66437398872375Q23.478058033218385,46.590773988723754,23.161279033218385,46.478873988723755C22.818446433218384,46.359173988723754,22.684457033218383,45.94065398872375,22.892016633218383,45.637833988723756Z" fill="#FFFFFF" fill-opacity="1"/></g><g><path d="M76.37065218048096,44.60175238220215Q78.48045218048097,49.58398238220215,80.58065218048097,54.569482382202146Q81.54055218048096,56.83988238220215,80.08655218048096,58.94408238220215Q68.28965218048096,76.00788238220215,56.483352180480956,93.06838238220215C55.092652180480954,95.07988238220216,53.363052180480956,95.21418238220215,50.942852180480955,94.82718238220215Q45.94405218048096,94.02458238220214,40.942112180480954,93.23788238220214C39.29803218048096,92.97888238220216,38.30651218048096,91.85318238220215,37.622272180480955,90.25108238220216Q35.30978218048096,84.83078238220216,33.04164318048096,79.38798238220215C32.30988418048096,77.63238238220214,32.39541318048096,76.26688238220214,33.44078518048096,74.75748238220214Q44.96525218048096,58.10628238220215,56.48645218048095,41.45186238220215C58.029152180480956,39.219766382202145,59.35015218048096,38.42030338220215,61.99525218048096,38.83282638220215Q67.39315218048097,39.67386038220215,72.78155218048096,40.553272382202145C74.83115218048096,40.88904238220215,75.62625218048095,42.83653238220215,76.37065218048096,44.60175238220215ZM45.34535218048096,77.90418238220215C46.302052180480956,78.05128238220215,47.60715218048096,78.24958238220215,48.28185218048095,77.27738238220215Q60.06925218048096,60.27758238220215,71.72355218048097,43.41854238220215C71.99115218048095,43.03204238220215,71.76655218048096,42.496102382202146,71.30535218048095,42.42081238220215Q66.07535218048096,41.58298238220215,60.97205218048096,40.84427238220215Q59.57505218048095,40.64281238220215,58.726052180480956,41.86439238220215Q47.05595218048096,58.67868238220215,35.493512180480955,75.41948238220215C35.22865218048096,75.80448238220214,35.45313218048096,76.33668238220216,35.91166218048096,76.41078238220214Q40.65385218048095,77.17828238220216,45.34535218048096,77.90418238220215Z" fill="#000000" fill-opacity="1"/></g><g><path d="M48.281864282226564,77.2774548904419C47.60706428222656,78.24955489044189,46.301964282226564,78.0512548904419,45.345304282226564,77.9041548904419Q40.65380428222656,77.17825489044189,35.91161828222656,76.4107548904419C35.45308468222656,76.33665489044189,35.22861128222656,75.80455489044189,35.49347028222656,75.4194548904419Q47.055864282226565,58.67865489044189,58.72606428222656,41.86439489044189Q59.57506428222656,40.6428118904419,60.97206428222656,40.84427579044189Q66.07536428222656,41.582980890441895,71.30536428222656,42.420814890441896C71.76646428222656,42.49610489044189,71.99106428222656,43.032044890441895,71.72346428222656,43.41854489044189Q60.069164282226566,60.277654890441895,48.281864282226564,77.2774548904419Z" fill="#FFFFFF" fill-opacity="1"/></g><g><path d="M82.95333834228515,81.18522713928223C81.29024834228515,77.29022713928222,79.66199834228516,73.38242713928223,78.01157734228515,69.48102713928222C77.43187034228515,68.10272713928222,77.82784464228516,66.79802713928223,78.64513534228516,65.47412713928223Q82.75375834228515,58.80340713928223,86.21932834228515,54.105757139282225C87.51812834228515,52.34374413928223,89.25088834228515,52.20623413928222,91.43668834228515,52.551602139282224Q96.64448834228516,53.373453139282226,101.84918834228516,54.220887139282226C103.32538834228515,54.460717139282224,104.31058834228516,55.75265713928223,104.92518834228515,57.207677139282225Q107.33578834228516,62.90942713928223,109.74018834228517,68.61442713928223C110.40538834228516,70.19092713928222,109.69578834228516,71.71952713928223,108.71068834228515,73.20652713928223Q105.15638834228515,78.57252713928223,101.57358834228515,83.91612713928222Q100.60428834228516,85.36152713928223,98.91268834228515,85.65892713928223Q98.04788834228515,85.80922713928223,95.92228834228516,85.47352713928223Q91.38598834228516,84.75082713928222,86.85604834228516,84.02482713928222C84.85400834228516,83.70192713928222,83.73577834228516,83.01432713928223,82.95333834228515,81.18522713928223ZM90.58768834228516,68.58562713928222C91.42088834228515,68.71352713928223,92.86218834228515,68.90542713928222,93.44818834228516,68.03242713928222Q97.10388834228516,62.56732713928223,100.77848834228516,56.99661713928223C101.01408834228516,56.643477139282226,100.80688834228516,56.16226713928223,100.38888834228516,56.091627139282224Q95.28558834228515,55.24739713928223,89.96048834228516,54.50548713928222Q88.54768834228516,54.307227139282226,87.81588834228515,55.404087139282225Q84.34715834228516,60.613387139282224,80.82457834228515,65.78432713928223Q80.44444834228516,66.34392713928223,80.75171834228516,66.83322713928223C80.83635834228515,66.97132713928222,80.97733834228515,67.06582713928222,81.13818834228516,67.09222713928223Q85.88670834228516,67.86932713928223,90.58768834228516,68.58562713928222Z" fill="#000000" fill-opacity="1"/></g><g><path d="M93.44823792114258,68.03243580322265C92.86213792114258,68.90543580322266,91.42083792114258,68.71353580322265,90.58768792114257,68.58563580322266Q85.88667792114258,67.86933580322265,81.13816292114258,67.09223580322265C80.97730792114258,67.06583580322265,80.83632892114258,66.97133580322266,80.75169092114258,66.83323580322266Q80.44441492114258,66.34393580322265,80.82454892114258,65.78433580322266Q84.34712792114257,60.613385803222656,87.81586792114258,55.40408180322266Q88.54762792114258,54.307220803222656,89.96045792114258,54.505486503222656Q95.28553792114258,55.24739080322266,100.38883792114258,56.091625803222655C100.80683792114257,56.16226580322266,101.01403792114257,56.643465803222654,100.77843792114258,56.99661580322265Q97.10383792114257,62.56727580322266,93.44823792114258,68.03243580322265Z" fill="#FFFFFF" fill-opacity="1"/></g></g></g></svg>